<svg xmlns="http://www.w3.org/2000/svg" viewBox="0 0 24 24" fill="#ABB5C4">
  <path d="M12.525.02c1.31-.02 2.61.01 3.91-.02.08 1.53.63 3.09 1.75 4.17 1.12 1.11 2.68 1.67 4.24 1.84v4.03c-1.44-.05-2.87-.35-4.2-.89-.58-.24-1.13-.55-1.68-.88-.01 2.88.01 5.76-.02 8.64-.08 1.4-.54 2.78-1.35 3.94-1.31 1.91-3.46 3.23-5.74 3.52-1.35.2-2.74.1-4.04-.29-2.37-.7-4.3-2.63-5.02-4.99-.75-2.43-.45-5.2.84-7.37 1.23-2.12 3.48-3.73 5.91-4.14.9-.15 1.82-.16 2.73-.04.02 1.48-.04 2.96-.04 4.44-.6-.2-1.25-.24-1.87-.16-1.37.18-2.63 1.04-3.39 2.18-.31.48-.55 1.03-.63 1.6-.08.37-.04.74-.03 1.11.1 1.22.76 2.32 1.73 3.06.27.2.56.37.87.5.57.24 1.2.35 1.82.32 1.02-.05 2.02-.5 2.76-1.2a4.08 4.08 0 0 0 1.21-2.86c.02-4.9.01-9.8.01-14.7z"/>
</svg>
