<svg xmlns="http://www.w3.org/2000/svg" viewBox="0 0 24 24" fill="#ABB5C4">
  <path d="M12 2.163c3.204 0 3.584.012 4.85.07 3.252.148 4.771 1.691 4.919 4.919.058 1.265.069 1.645.069 4.849 0 3.205-.012 3.584-.069 4.849-.149 3.225-1.664 4.771-4.919 4.919-1.266.058-1.644.07-4.85.07-3.204 0-3.583-.012-4.849-.07-3.259-.149-4.771-1.699-4.919-4.919-.058-1.265-.07-1.644-.07-4.849 0-3.204.013-3.583.07-4.849.149-3.227 1.664-4.771 4.919-4.919 1.266-.057 1.645-.069 4.849-.069zm0 1.838c-3.157 0-3.533.012-4.772.069-2.266.103-3.292 1.18-3.395 3.395-.057 1.239-.069 1.615-.069 4.772 0 3.157.012 3.533.069 4.772.103 2.213 1.127 3.292 3.395 3.395 1.239.057 1.615.069 4.772.069 3.157 0 3.533-.012 4.772-.069 2.215-.103 3.292-1.179 3.395-3.395.057-1.239.069-1.615.069-4.772 0-3.157-.012-3.533-.069-4.772-.103-2.215-1.18-3.292-3.395-3.395-1.239-.057-1.615-.069-4.772-.069zm0 3.1a4.9 4.9 0 1 1 0 9.8 4.9 4.9 0 0 1 0-9.8zm0 1.838a3.062 3.062 0 1 0 0 6.124 3.062 3.062 0 0 0 0-6.124zm6.406-3.232a1.144 1.144 0 1 1 0 2.288 1.144 1.144 0 0 1 0-2.288z"/>
</svg>
